<svg width="47" height="52" viewBox="0 0 47 52" fill="none" xmlns="http://www.w3.org/2000/svg">
<path d="M16.5503 15.697C16.6042 15.2106 16.7082 14.7328 16.8129 14.2557C17.1738 12.6087 17.7598 11.0439 18.5496 9.55571C19.2786 8.18196 20.1603 6.91495 21.2059 5.76077C22.2077 4.6549 23.3294 3.69073 24.5546 2.84156C25.2449 2.363 25.9701 1.94471 26.7126 1.55464C26.781 1.51874 26.8571 1.49758 26.9298 1.46958C26.9465 1.47983 26.9567 1.47492 26.9614 1.45654C27.3485 1.22763 27.77 1.07523 28.1864 0.913648C29.2033 0.51866 30.2566 0.259397 31.3355 0.109354C31.7707 0.0488658 32.2097 0.00483598 32.6502 0.00376729C33.2199 0.00248487 33.7894 -0.00884322 34.3591 0.0153091C34.529 0.0225761 34.5307 0.0197976 34.5315 0.196772C34.5328 0.453256 34.532 0.709741 34.532 0.966223C34.532 5.47565 34.5322 9.9851 34.5313 14.4945C34.5313 14.77 34.5835 14.7685 34.2569 14.754C33.4767 14.7192 32.7116 14.786 31.9776 15.0908C31.2182 15.4061 30.62 15.9126 30.1476 16.5755C29.5968 17.3481 29.2892 18.2217 29.1063 19.144C29.0125 19.6173 28.9635 20.0961 28.9267 20.5779C28.8731 21.2819 28.9013 21.9858 28.8874 22.6896C28.8851 22.804 28.9289 22.8443 29.037 22.8313C29.065 22.8279 29.0938 22.8309 29.1225 22.8309C31.103 22.8309 33.0835 22.8311 35.064 22.8307C35.3271 22.8307 35.3021 22.8512 35.3023 22.5868C35.3027 20.9767 35.3025 19.3668 35.3025 17.7567C35.3025 17.6822 35.3025 17.6074 35.3025 17.4834C35.4605 17.6599 35.5829 17.7953 35.7035 17.9324C37.3915 19.8529 39.079 21.774 40.7674 23.6944C42.6296 25.8127 44.4924 27.9305 46.3549 30.0484C46.4583 30.1659 46.5569 30.2886 46.6678 30.3989C46.7533 30.484 46.7407 30.5419 46.6646 30.6267C46.2704 31.0672 45.8823 31.5131 45.492 31.9572C43.9684 33.6904 42.4452 35.4238 40.9212 37.1568C40.0887 38.1035 39.2558 39.0497 38.4224 39.9956C38.3993 40.0217 38.3707 40.0432 38.3446 40.0666C38.1113 40.3723 37.8458 40.6495 37.5933 40.9387C36.8718 41.7648 36.145 42.5863 35.4203 43.4095C35.3936 43.4399 35.3649 43.4685 35.3023 43.5352C35.3023 43.4146 35.3023 43.34 35.3023 43.2654C35.3023 41.4559 35.303 39.6465 35.3016 37.8369C35.3015 37.5494 35.3414 37.5796 35.0359 37.5794C33.0698 37.5785 31.1036 37.579 29.1375 37.579C29.1091 37.579 29.0804 37.5785 29.052 37.5791C28.8928 37.5828 28.8923 37.5828 28.8893 37.7461C28.8883 37.8102 28.8892 37.8744 28.8892 37.9385C28.8892 42.5334 28.8893 47.1283 28.8884 51.7232C28.8884 52.0308 28.9338 51.999 28.62 51.9991C24.5735 51.9998 20.5273 51.9996 16.4808 51.9996C16.4738 51.9996 16.4665 51.9996 16.4594 51.9996C16.172 51.9976 16.2071 52.0227 16.2071 51.7497C16.2066 45.1459 16.2066 38.5421 16.2066 31.9382C16.2066 31.8461 16.2066 31.754 16.2066 31.6642C16.1228 31.6403 16.0711 31.6875 16.018 31.7172C15.7948 31.8427 15.5712 31.9682 15.3527 32.102C14.1738 32.8241 12.9623 33.488 11.7044 34.0609C10.5678 34.5783 9.38647 34.9695 8.15659 35.2049C7.45322 35.3396 6.74468 35.367 6.03036 35.3323C5.20897 35.2926 4.40361 35.1629 3.61193 34.9429C3.17099 34.8202 2.7542 34.6379 2.34704 34.4324C1.89583 34.2045 1.44506 33.9758 0.994074 33.7477C0.691427 33.5947 0.42682 33.3935 0.215861 33.126C0.17632 33.0757 0.140839 33.0219 0.108566 32.9665C-0.135308 32.5474 0.0433757 32.1812 0.527277 32.112C0.713868 32.0853 0.896401 32.1077 1.0723 32.1791C1.21145 32.2357 1.34782 32.2994 1.46623 32.3914C1.93302 32.7532 2.46352 32.9962 3.00599 33.2142C3.77886 33.5248 4.55771 33.8208 5.38082 33.9749C6.54418 34.1927 7.70457 34.1716 8.85725 33.9038C9.26096 33.8099 9.63757 33.6361 10.0099 33.4568C10.9358 33.0108 11.8107 32.4775 12.6618 31.9036C13.8189 31.1233 14.9451 30.2976 16.1128 29.5324C16.1801 29.4883 16.2162 29.442 16.2077 29.361C16.2032 29.3186 16.2068 29.2755 16.2068 29.2327C16.2068 26.1053 16.2019 22.9779 16.2107 19.8505C16.2126 19.1623 16.2487 18.4732 16.2977 17.7864C16.34 17.1933 16.4051 16.6011 16.4935 16.0121C16.5071 15.921 16.527 15.8308 16.5441 15.7404C16.5529 15.7276 16.5888 15.7179 16.5503 15.697Z" fill="#6733B5"/>
<path d="M26.9618 1.45639C26.9744 1.47178 26.9885 1.4861 26.9979 1.5032C26.9998 1.50662 26.9827 1.5282 26.9744 1.52799C26.9374 1.52734 26.9348 1.49678 26.9299 1.46921C26.9378 1.45789 26.9483 1.45361 26.9618 1.45639Z" fill="#6733B5"/>
<path d="M16.5506 15.6971C16.5702 15.6933 16.5899 15.6894 16.6097 15.6855C16.6202 15.7427 16.5755 15.7341 16.5439 15.7412C16.5461 15.7264 16.5484 15.7119 16.5506 15.6971Z" fill="#6733B5"/>
<path d="M23.7471 35.3365C23.4968 35.2817 23.2401 35.298 22.9873 35.263C22.4459 35.1879 21.9092 35.0939 21.3842 34.9391C21.2015 34.8852 21.1791 34.8355 21.2611 34.6657C21.3295 34.5245 21.4276 34.4022 21.5217 34.2778C21.7485 33.9779 21.9782 33.6804 22.1659 33.3532C22.2828 33.1493 22.3809 32.9368 22.4476 32.712C22.6975 31.867 22.3561 30.8289 21.6621 30.2805C21.4332 30.0997 21.1757 30.0295 20.8929 30.0157C20.1016 29.977 19.3409 30.1275 18.5973 30.3846C17.8356 30.648 17.1253 31.0141 16.4563 31.4618C16.3935 31.5039 16.3292 31.5441 16.2642 31.586C16.2184 31.5234 16.236 31.4657 16.236 31.4123C16.2362 30.8304 16.2413 30.2487 16.2379 29.6669C16.2372 29.5563 16.2612 29.4858 16.3646 29.4279C17.3749 28.8625 18.3209 28.1972 19.2747 27.5438C20.0899 26.9851 20.9395 26.4882 21.8624 26.1259C22.3584 25.9312 22.865 25.7722 23.3955 25.7012C24.5332 25.5492 25.4269 25.95 26.0683 26.899C26.2746 27.204 26.3461 27.5639 26.4167 27.9189C26.6099 28.8897 26.5321 29.852 26.3188 30.8093C26.313 30.8355 26.2992 30.8601 26.3275 30.9117C26.7625 30.0511 26.9837 29.1644 26.9053 28.2124C26.8281 27.2781 26.5646 26.4095 25.9475 25.6345C26.2923 25.72 26.5924 25.7961 26.8935 25.869C28.3955 26.2325 29.9102 26.5309 31.4335 26.7896C32.0687 26.8975 32.7025 27.0138 33.3219 27.1995C33.8533 27.359 34.2553 27.6642 34.5058 28.1626C34.5184 28.1878 34.5346 28.2111 34.5505 28.2344C34.5535 28.2387 34.5618 28.2393 34.5894 28.25C34.609 28.1365 34.6015 28.0288 34.5778 27.9225C34.5139 27.6346 34.4173 27.3645 34.1766 27.168C34.1035 27.1084 34.12 27.0595 34.2123 27.0414C34.3025 27.0236 34.3951 27.0082 34.4866 27.0082C35.032 27.0091 35.5537 26.8746 36.0733 26.7314C36.5447 26.6015 37.0082 26.4441 37.4851 26.3338C37.5049 26.3291 37.5229 26.3161 37.5466 26.3044C37.5107 26.2582 37.4718 26.2182 37.4447 26.1714C37.4038 26.1006 37.3882 26.0214 37.4404 25.9504C37.4988 25.8709 37.5784 25.8929 37.6527 25.9252C37.9514 26.0553 38.2624 26.1603 38.5435 26.3272C38.8481 26.5084 39.146 26.7011 39.4433 26.8943C39.7139 27.0702 39.948 27.2861 40.1104 27.5692C40.2534 27.8187 40.3265 28.0796 40.2021 28.3599C40.1594 28.4561 40.1888 28.5253 40.2632 28.583C40.3076 28.6177 40.3577 28.6454 40.4058 28.6751C40.8204 28.9303 40.879 29.4358 40.5353 29.7803C40.331 29.9851 40.0747 30.0556 39.7979 30.0541C39.2933 30.0518 38.7916 30.0028 38.3009 29.8834C37.6932 29.7355 37.1059 29.8093 36.5235 30.0069C36.0584 30.1647 35.6125 30.362 35.1906 30.6138C34.7971 30.8484 34.4455 31.1346 34.1504 31.4838C33.5886 32.1488 32.8923 32.6188 32.0978 32.962C31.1016 33.3925 30.0806 33.7584 29.0713 34.1551C28.5104 34.3755 27.9524 34.6031 27.4231 34.8945C27.2749 34.9761 27.1193 35.0468 27.0092 35.2125C26.7271 34.7854 26.3669 34.4672 25.9488 34.2301C25.9642 34.156 26.0076 34.14 26.0455 34.125C26.2782 34.0331 26.3733 33.8399 26.4111 33.6142C26.4731 33.2454 26.4545 32.8789 26.3393 32.5211C26.2938 32.3796 26.2449 32.2385 26.1884 32.1011C26.1328 31.9656 26.0773 31.9587 25.9717 32.0639C25.9516 32.0838 25.9326 32.1056 25.9174 32.1293C25.6173 32.5961 25.2572 33.0151 24.8874 33.4265C24.8818 33.4502 24.8671 33.4643 24.8432 33.4688C24.586 33.6663 24.3475 33.8899 24.0264 34.0192C24.0842 34.1164 24.1697 34.1312 24.2445 34.1571C24.6128 34.2838 24.9829 34.4057 25.3508 34.5337C26.3357 34.8765 27.1141 35.5141 27.8152 36.2628C28.0879 36.5539 28.313 36.8807 28.5412 37.2054C28.5607 37.233 28.587 37.2605 28.5759 37.3176C28.4966 37.3091 28.4449 37.2498 28.3867 37.2084C27.8368 36.8166 27.2608 36.4699 26.6356 36.2111C26.4983 36.1542 26.3475 36.1279 26.216 36.0615C25.9717 35.9381 25.7496 35.9971 25.5265 36.1074C25.0624 36.337 24.6198 36.6054 24.1679 36.8572C22.5113 37.7808 21.0843 38.9946 19.7646 40.3434C19.7199 40.389 19.6769 40.4362 19.6321 40.4813C19.6224 40.4909 19.6075 40.4948 19.5949 40.5014C19.6139 40.2402 20.9548 38.4132 21.6172 37.6981C22.4081 36.8439 23.2978 36.1031 24.2663 35.4186C24.1275 35.3247 23.995 35.3371 23.8641 35.3422C23.8225 35.3745 23.7837 35.3775 23.7471 35.3365Z" fill="white"/>
<path d="M23.7781 35.3153C23.8177 35.3025 23.8564 35.3065 23.8946 35.3213C23.8238 35.4645 23.8238 35.4645 23.6169 35.3486C23.6704 35.3074 23.7287 35.3271 23.7781 35.3153Z" fill="#6733B5"/>
<path d="M16.4488 17.3477C16.4429 17.3568 16.4359 17.3825 16.4231 17.3859C16.3893 17.3947 16.3787 17.368 16.3782 17.3396C16.3778 17.3177 16.3908 17.3015 16.4131 17.301C16.4355 17.3009 16.4474 17.3162 16.4488 17.3477Z" fill="#6733B5"/>
<path d="M24.8777 33.4403C24.8834 33.4165 24.8984 33.4026 24.9221 33.3977C24.9458 33.4138 24.964 33.436 24.9392 33.4597C24.9149 33.4834 24.893 33.4642 24.8777 33.4403Z" fill="#6733B5"/>
<path d="M38.3451 40.0667C38.3188 40.0637 38.2902 40.0643 38.2773 40.0352C38.2752 40.0303 38.2888 40.0111 38.2925 40.0117C38.3218 40.0177 38.3344 40.0419 38.3451 40.0667Z" fill="#6733B5"/>
</svg>
